{
	"asset":{
		"generator":"Khronos glTF Blender I/O v4.4.56",
		"version":"2.0"
	},
	"scene":0,
	"scenes":[
		{
			"name":"Scene",
			"nodes":[
				0,
				1,
				2,
				3,
				4,
				5,
				6,
				7,
				8
			]
		}
	],
	"nodes":[
		{
			"mesh":0,
			"name":"Mukkumlung"
		},
		{
			"name":"Marker2",
			"translation":[
				-24.37660789489746,
				67.70158386230469,
				62.04585647583008
			]
		},
		{
			"name":"Marker1",
			"translation":[
				13.911035537719727,
				92.29534149169922,
				-21.688640594482422
			]
		},
		{
			"name":"Marker3",
			"translation":[
				-5.74365234375,
				68.85787963867188,
				44.98921585083008
			]
		},
		{
			"name":"Marker4",
			"translation":[
				-1.95743727684021,
				81.61699676513672,
				6.821178436279297
			]
		},
		{
			"name":"Marker5",
			"translation":[
				-50.89131546020508,
				55.83671951293945,
				-11.783187866210938
			]
		},
		{
			"name":"Marker6",
			"translation":[
				-85.89588928222656,
				40.793251037597656,
				-13.852479934692383
			]
		},
		{
			"name":"Marker7",
			"translation":[
				-165.72561645507812,
				26.95706558227539,
				-22.023305892944336
			]
		},
		{
			"name":"Marker0",
			"translation":[
				-45.99956512451172,
				53.96196365356445,
				-22.66765785217285
			]
		}
	],
	"materials":[
		{
			"doubleSided":true,
			"name":"rastMat",
			"pbrMetallicRoughness":{
				"baseColorTexture":{
					"index":0
				},
				"metallicFactor":0,
				"roughnessFactor":0.5
			}
		}
	],
	"meshes":[
		{
			"name":"Mukkumlung",
			"primitives":[
				{
					"attributes":{
						"POSITION":0,
						"NORMAL":1,
						"TEXCOORD_0":2,
						"TEXCOORD_1":3,
						"TEXCOORD_2":4
					},
					"indices":5,
					"material":0
				}
			]
		}
	],
	"textures":[
		{
			"sampler":0,
			"source":0
		}
	],
	"images":[
		{
			"mimeType":"image/png",
			"name":"MainTexture",
			"uri":"MainTexture.png"
		}
	],
	"accessors":[
		{
			"bufferView":0,
			"componentType":5126,
			"count":14790,
			"max":[
				94.96404266357422,
				92.86833190917969,
				96.3407211303711
			],
			"min":[
				-190.13058471679688,
				1.8020115021499805e-05,
				-141.39846801757812
			],
			"type":"VEC3"
		},
		{
			"bufferView":1,
			"componentType":5126,
			"count":14790,
			"type":"VEC3"
		},
		{
			"bufferView":2,
			"componentType":5126,
			"count":14790,
			"type":"VEC2"
		},
		{
			"bufferView":3,
			"componentType":5126,
			"count":14790,
			"type":"VEC2"
		},
		{
			"bufferView":4,
			"componentType":5126,
			"count":14790,
			"type":"VEC2"
		},
		{
			"bufferView":5,
			"componentType":5123,
			"count":87576,
			"type":"SCALAR"
		}
	],
	"bufferViews":[
		{
			"buffer":0,
			"byteLength":177480,
			"byteOffset":0,
			"target":34962
		},
		{
			"buffer":0,
			"byteLength":177480,
			"byteOffset":177480,
			"target":34962
		},
		{
			"buffer":0,
			"byteLength":118320,
			"byteOffset":354960,
			"target":34962
		},
		{
			"buffer":0,
			"byteLength":118320,
			"byteOffset":473280,
			"target":34962
		},
		{
			"buffer":0,
			"byteLength":118320,
			"byteOffset":591600,
			"target":34962
		},
		{
			"buffer":0,
			"byteLength":175152,
			"byteOffset":709920,
			"target":34963
		}
	],
	"samplers":[
		{
			"magFilter":9729,
			"minFilter":9987,
			"wrapS":33071,
			"wrapT":33071
		}
	],
	"buffers":[
		{
			"byteLength":885072,
			"uri":"MountainSceneNew.bin"
		}
	]
}
