{
	"asset":{
		"generator":"Khronos glTF Blender I/O v4.1.63",
		"version":"2.0"
	},
	"scene":0,
	"scenes":[
		{
			"name":"Scene",
			"nodes":[
				0,
				1,
				2,
				3,
				4,
				5,
				6
			]
		}
	],
	"nodes":[
		{
			"mesh":0,
			"name":"Mukkumlung"
		},
		{
			"name":"Marker1",
			"translation":[
				-41.764495849609375,
				39.62368392944336,
				100.94269561767578
			]
		},
		{
			"name":"Marker6",
			"translation":[
				-0.75677490234375,
				70.07001495361328,
				-0.158935546875
			]
		},
		{
			"name":"Marker2",
			"translation":[
				-75.45608520507812,
				44.15959167480469,
				-31.026424407958984
			]
		},
		{
			"name":"Marker3",
			"translation":[
				20.233123779296875,
				33.25819778442383,
				-76.71031951904297
			]
		},
		{
			"name":"Marker4",
			"translation":[
				95.85848999023438,
				51.37110900878906,
				-47.69486999511719
			]
		},
		{
			"name":"Marker5",
			"translation":[
				79.49871826171875,
				34.12769317626953,
				65.58881378173828
			]
		}
	],
	"materials":[
		{
			"doubleSided":true,
			"name":"CombinedTexture",
			"pbrMetallicRoughness":{
				"baseColorTexture":{
					"index":0
				},
				"metallicFactor":0
			}
		}
	],
	"meshes":[
		{
			"name":"Mukkumlung",
			"primitives":[
				{
					"attributes":{
						"POSITION":0,
						"NORMAL":1,
						"TEXCOORD_0":2,
						"TEXCOORD_1":3,
						"TEXCOORD_2":4
					},
					"indices":5,
					"material":0
				}
			]
		}
	],
	"textures":[
		{
			"sampler":0,
			"source":0
		}
	],
	"images":[
		{
			"mimeType":"image/jpeg",
			"name":"MainTexture",
			"uri":"MainTexture.jpg"
		}
	],
	"accessors":[
		{
			"bufferView":0,
			"componentType":5126,
			"count":5091,
			"max":[
				125.26225280761719,
				70.5852279663086,
				128.439453125
			],
			"min":[
				-142.49073791503906,
				-14.441265106201172,
				-156.0351104736328
			],
			"type":"VEC3"
		},
		{
			"bufferView":1,
			"componentType":5126,
			"count":5091,
			"type":"VEC3"
		},
		{
			"bufferView":2,
			"componentType":5126,
			"count":5091,
			"type":"VEC2"
		},
		{
			"bufferView":3,
			"componentType":5126,
			"count":5091,
			"type":"VEC2"
		},
		{
			"bufferView":4,
			"componentType":5126,
			"count":5091,
			"type":"VEC2"
		},
		{
			"bufferView":5,
			"componentType":5123,
			"count":29142,
			"type":"SCALAR"
		}
	],
	"bufferViews":[
		{
			"buffer":0,
			"byteLength":61092,
			"byteOffset":0,
			"target":34962
		},
		{
			"buffer":0,
			"byteLength":61092,
			"byteOffset":61092,
			"target":34962
		},
		{
			"buffer":0,
			"byteLength":40728,
			"byteOffset":122184,
			"target":34962
		},
		{
			"buffer":0,
			"byteLength":40728,
			"byteOffset":162912,
			"target":34962
		},
		{
			"buffer":0,
			"byteLength":40728,
			"byteOffset":203640,
			"target":34962
		},
		{
			"buffer":0,
			"byteLength":58284,
			"byteOffset":244368,
			"target":34963
		}
	],
	"samplers":[
		{
			"magFilter":9729,
			"minFilter":9987
		}
	],
	"buffers":[
		{
			"byteLength":302652,
			"uri":"MountainSceneNew.bin"
		}
	]
}
